<svg width="30" height="26" viewBox="0 0 30 26" fill="none" xmlns="http://www.w3.org/2000/svg">
<path d="M14.0419 0.5C18.8203 4.3392 20.9806 12.1937 18.926 17.9936C18.3272 13.1447 17.3645 10.7144 15.169 8.74196C13.537 12.7338 14.2062 16.5378 15.803 20.5061C12.5978 19.3321 9.56866 18.5924 6.2343 19.7782C8.01889 21.6802 10.1322 22.549 12.5038 23.1126C7.561 24.2749 2.03114 21.8915 0 17.7236C4.69627 15.7042 9.23992 16.4321 14.0771 18.6746C9.94436 12.3698 9.83869 6.42905 14.0419 0.5Z" fill="#DCA8AA"/>
<path d="M29.4692 15.1759C25.0664 22.7839 16.0144 26.6348 6.75098 25.7895C13.4667 24.8855 19.8418 23.817 22.6479 16.9605C25.043 16.3265 27.3559 15.7277 29.4692 15.1759Z" fill="#DCA8AA"/>
</svg>